<svg version="1.2" xmlns="http://www.w3.org/2000/svg" viewBox="0 0 828 593" width="828" height="593"><style>.a{fill:#222}</style><path class="a" d="m80.1 56.8q-7.5 0-15 6.3-7.2 6.3-12.3 21-5.1 14.4-5.1 37.2 0 22.2 6.2 35.4 6.7 12.9 14.7 18 8.5 5.1 14.5 5.1 5.3 0 11-3.6 5.8-3.9 10-8.1 0.5-0.6 1.8-2.1 1.5-1.5 2.7-1.5 1.5 0 3.5 1.2l25.5 14.1q1.3 0.6 3.7 1.8 2.7 0.9 3.6 1.8 1.2 0.9 1.2 2.4 0 1.5-1 3.3-6.5 11.1-20.7 22.8-14 11.7-39 11.7-19.5 0-37.5-14.4-17.6-14.7-28.5-39.9-10.7-25.2-10.7-55.5 0-30 10.2-54 10.5-24 26.7-37.5 16.2-13.5 33.3-13.5 21.2 0 34.2 9 13.2 8.7 18.9 16.8 1.1 1.8 2.1 3.3 1.2 1.5 1.2 3 0 1.8-3.3 4.8-13.9 10.8-19.9 18.9-3 3.9-5 6-2.2 1.8-4.2 1.8-2.1 0-4.8-3-6.3-6.9-10-9.6-3.2-3-8-3zm120.9-44.4l-0.6 17.4q-1.5 42-1.5 45.6l-0.3 42.9q0 5.7 0.3 9.9l0.3 18q0 6.3-0.3 7.8-0.3 1.8-0.3 3.3 0.3 1.5 0.3 2.1 0 1.2 0.3 1.5l7.2 0.6q9.6 0.6 15.9 0.3l55.5-0.6q0 0 31.4 0.9l14.2 0.3q3.3 0.3 3.3 1.8 0 0.6-0.3 1.5-0.3 0.9-0.3 1.8v13.8q0 5.4 1.8 22.8l1.2 12.6 0.3 1.5q0 1.5-1.5 2.1-1.5 0.3-5.4 0.3l-21.9-0.3-37.2-0.6q-7.5 0-21 0.9-6 0.3-13.5 0.6-7.2 0.3-14.4 0.3l-5.1-0.3q-1.8-0.3-6.9-0.3l-13.5 0.3q-3.6 0.3-9.3 0.3-3.9 0-4.8-0.9-0.6-1.2-0.6-3.3 0.3-2.1 0.3-3.6 0-6.6 0.9-22.8l0.9-30.9-0.6-14.1q-0.3-4.2-0.6-9.9-0.3-6-0.3-12.3 0 10.2 1.8-20.4 1.8-30.9 1.8-38.1l-0.3-33.9-0.6-19.2v-0.3q0-2.4 3.3-2.4l4.2 0.3q1.5 0 3.9 0.3 2.4 0 7.5 0h2.7q1.8 0 1.8 2.4zm268.5 28.5q0 6-0.9 11.1-0.3 4.5-4.2 4.5-1.2 0-3.3-0.6-2.1-0.6-3.3-0.9-4.5-0.9-26.1-0.9l-11.4-0.3q-3.9-0.3-11.4-0.3-5.4 0-8.1 0.3-9 0.6-15.9 0.6l-15.9-0.3q-2.4 0-2.7 1.2-0.3 0.9-0.3 4.8 0 5.4-0.3 9.3-0.6 12-0.6 19.5v17.7q0 6.3 0.3 9.6 2.4 0.3 8.1 0.3 5.1 0.3 21 0.3 6.6 0 19.2-0.6 9.6-0.6 12.6-0.6 4.2 0 8.4 0.6 4.2 0.3 6.3 0.3 3.9 0 3.9 3.6 0 1.2-0.3 3.6-0.3 2.1-0.3 5.7l0.3 15.9q0 2.7-0.6 3.9-0.6 0.9-2.1 0.9-0.9 0-2.7-0.3-1.5-0.6-2.7-0.6-2.7 0-10.2-0.3-7.2-0.3-19.8-0.3-13.5 0-23.4 1.2-9.9 1.2-12 1.2-3.3 0-3.9-0.3-1.5 0-1.8-0.3v30q2.1 0 3.3-0.3l8.4-0.3 35.4-0.3q10.8 0 17.1 0.3l20.7 0.3 12.6-0.3q3.6 0 4.8 1.8 1.2 1.5 1.2 4.5l-0.3 6-0.3 21q0 4.8-2.1 6-2.1 0.9-6 0.9-3.9-0.3-6.3-0.3-12.9 0-22.2-0.3l-30.6-0.3q-3.6 0-36 0.9l-11.4 0.3-1.8 0.3q-1.8 0-2.1-0.9-0.3-1.2-0.3-4.2-0.3-3.3-0.3-11.1 0-2.4-0.3-5.1-0.3-3-0.3-7.8v-41.1q0-6 0.3-11.7 0.6-5.7 0.6-8.4 1.2-13.8 1.2-26.4 0-15.6-0.9-24.6-0.6-10.2-0.6-18.6 0-18.9 0.9-44.1 0-3.9 1.5-5.1 1.5-1.5 4.2-1.5l4.5 0.3q2.7 0 8.7 0.6 6 0.3 14.7 0.3 9.9 0 23.4-1.5 16.2-1.2 21.6-1.2 12.3 0 22.5 0.9l10.8 0.3q3.9 0 5.1 1.8 1.2 1.8 1.2 6.6 0 2.7 0.6 9.3 0.6 7.8 0.6 13.5zm188.7 173.1q1.5 3 1.5 3.9 0 2.4-5.4 2.4h-21.6q-1.2 0-2.4-2.1-1.2-2.1-2.1-4.2-0.9-2.1-1.5-3.6-1.5-3-5.7-13.8-3.9-10.8-6-17.1-1-3-3.6-8.7-2.7-6-3.9-8.4-1.2-3.6-2.5-4.8-0.8-1.2-3-1.2-2 0-5.3 0.3-3 0.3-6.7 0.6-2.3 0.6-15 0.6-8.6 0-17 0.6-2.7 0.3-9.6 0.3l-15.9-0.3q-1.5 0-2.4 1.2-0.6 1.2-0.9 3-0.3 1.5-0.6 2.4l-1.8 7.5q-0.9 4.2-2.4 9.9-1.2 5.4-2.1 10.2l-3.3 12.9-2.4 8.7q-0.9 3.6-1.8 4.8-0.6 0.9-2.1 0.9h-17.7q-1.5 0-1.5-1.2 0-0.6 1.2-4.2 2.4-5.7 4.2-11.4 11.1-37.2 13.2-48.6 2.7-15 11.1-38.7 2.7-10.2 5.1-18.6 0.9-4.2 2.7-10.2 5.7-21 11.4-39.3l7.5-24q2.4-9.3 6-19.2 1.8-4.5 4.1-2.1 1.9 1.2 2.8 4.2 0.9 3 1.2 4.2 0.9 3.6 15.9 36 6 12.3 12.9 32.1 3 8.7 16.5 37.5 6.9 14.1 9 19.5 4.8 10.5 25.8 51l3.6 7.5q6.9 15.3 10.5 19.5zm-78.7-99q2.2-0.3 3.7-0.3 1.5 0 2.3-0.3 1-0.3 1-0.9 0-0.6-1-2.4-1.5-2.7-6.8-15-5.4-12.6-7.5-18.9-3-7.2-4.8-12-1.5-4.8-2.4-6.6-0.6-1.5-1.5-3-0.6-1.5-1.2-2.4-0.6-0.9-1.3-0.9-0.8 0-2 4.5-1 4.5-1.5 6.9-5.4 17.4-7.8 26.4-1.2 4.5-3.6 11.1-2.1 6.3-3 8.7-0.9 3-0.9 4.8 0 1.8 2.7 1.8 6.3 0 19.1-0.3 13.3-0.6 16.5-1.2zm235.8 96.6q4.2 6.6 4.2 8.7 0 1.2-1.5 1.5-1.5 0.3-2.7 0.3-0.9 0-1.5 0l-33.9 0.9q-2.4 0-3.9-2.1-1.2-2.1-3.6-7.5-1.5-4.5-5.4-12-6-10.8-20.7-40.5l-15.3-29.7 0.9 15.9 1.5 22.8q1.9 40.2 3 44.4 0.4 1.2 0.4 3 0 5.4-5.8 5.4-1.7 0-3-0.3-4.7-0.6-23.4 1.2-12.6 1.2-15.3 1.2-3.8 0-5.3-1.5-1.2-1.5-1.2-5.1l0.2-6.9-0.5-17.4q-1.9-31.2-1.9-54.3 0-12 0.9-16.5 1.5-7.5 1.5-42.3 0-36.3-1.2-54.9-0.3-2.4-0.3-6.6 0-4.8 1-6.9 0.8-2.1 1.8-2.1 1.2-0.3 3.8-0.3l6.7-0.6q20.7-2.4 33-2.4 33.5 0 50.3 17.4 17.2 17.1 17.2 44.7 0 21.9-14.2 42-6 8.7-13.8 15.6l21 38.1q23.1 41.4 27 46.8zm-86-120.3q4.5 0 8-1.8 8.5-3.9 8.5-15.9 0-8.7-2.8-12.9-2.7-4.2-6.9-4.2-3.3 0-5.7 2.4-0.3 0.3 0 4.2 0.4 3.9 0.4 7.8 0 3.3-0.4 4.8-1.1 5.1-1.1 10.5l-0.4 2.7zm-719.6 280.8q4.5 0 16.5-0.6 14.4-0.6 21.3-0.6l31.8 0.6 18.6 0.6h17.7q25.8 0 30-0.6l2.1-0.3q2.7 0 3.2 1.2 0.7 0.9 0.7 2.1 0 1.2 0 1.5 0 0.3 0 6 0.3 5.4-2.7 9.6-33.6 48.6-41.4 59.4-21.6 30.6-36.6 50.4l-28.5 39q8.4 1.2 12.3 1.5 9.3 1.2 21.6 1.2l17.1-0.3q5.1-0.3 15.6-0.3 8.4 0 31.2-1.2l18.6-0.6q3.6 0 4.5 1.8 0.9 1.8 0.9 4.2 0.3 2.4 0.3 3.3l-0.6 21.9v1.8q0 3-0.6 3.6-0.6 0.6-3.6 0.9l-6 0.6q-6.6 0-16.5 1.5-4.3 0.6-17.4 0.6l-23.7-0.3q-5.7-0.3-14.4-0.3h-73.5q-6.6 0-8.1-1.8-1.5-2.1-1.5-4.5 0.3-2.7 0.3-3.6l0.6-11.7q0.9-8.7 0.9-14.7 0-2.4 2.1-5.4 2.1-3 6-7.2l4.8-5.4q8.1-10.8 22.8-30.6 15-20.1 18.6-26.4 3.6-6.6 14.7-21 11.1-14.7 13.8-18.6l3.6-4.8q4.5-6.6 10.8-19.5l5.4-11.7q-1.8 0-2.7-0.3l-6-0.6-31.8-0.3q-5.4 0-8.4 0.3l-9.9 0.3q-4.2 0-5.4-0.3-2.7-0.6-21.3-0.6h-12.6q-2.4-0.3-3-0.9-0.6-0.6-0.6-1.5 0.3-0.9 0.3-1.5 0-3.3-0.9-11.7-0.3-3 1.2-3.6 1.8-0.9 4.2-0.6 2.4 0 3.6 0zm314.4 8.4v3.3q0 6.9-1.2 6.9-1.8 0-4.2-0.3-2.1-0.6-5.4-0.6h-48l-37.2-0.3q-1.8 0-13.5 0.9l-6.9 0.6-0.6 8.1q-0.3 4.5-0.3 14.1 0 4.8 0.6 12.6 0.6 7.2 0.6 10.5v12q0 4.8 0.3 7.5 2.7 0.3 8.1 0.3h12q1.8 0 7.2-0.6 7.8-0.6 13.5-0.6 2.4 0 16.8 0.9l6.6 0.3q2.4 0 6.9-0.3 4.5-0.6 8.7-0.6l9.9 0.3q7.8 0.6 10.8 0.6 3.3 0 4.5-0.3l1.8-0.3q2.1 0 3 1.5 0.9 1.2 0.6 2.4-0.3 2.1-0.3 5.4 0 3-0.3 5.4-0.3 2.4-0.9 3-0.6 0.3-3.6 0.3l-12-1.2q-22.5-2.1-29.4-2.1-25.5 0-37.5 0.9-4.8 0.6-10.5 0.6-5.7 0-7.2 0-5.7 0-8.4-0.3l-0.9 4.8q-0.6 5.4-0.6 9.6 0 3.6 0.6 8.4 0.6 4.8 0.6 8.4l0.3 35.7-0.3 15q-0.3 2.7-0.3 7.5 3.9 0.3 11.4 0.3 6.3 0.3 19.5 0.3l16.2 0.3q5.1 0.3 15.6 0.3 6.3 0 16.5-0.6l12.6-0.3q7.2 0 12 0.3 4.8 0.3 7.2 0.3 2.4 0 2.7 0.9 0.6 0.9 0.6 3.9 0 2.1-0.3 4.5-0.3 2.1-0.3 4.8 0 2.1-1.5 3-1.5 0.6-4.8 0.6-3.3 0-5.4-0.3-8.1-0.9-32.7-0.9-15 0-21.6 0.3-5.1 0.3-16.8 0.3l-27.9-0.3q-4.8-0.3-11.4-0.3-4.2 0-5.7-0.9-1.2-1.2-1.2-3.6l0.3-4.8q0.3-1.2 0.3-2.7 0-0.9-0.3-4.2-0.3-3.6-0.3-12.9 0-9-0.6-29.4-0.9-16.8-0.9-32.4 0-6.6 1.5-38.1 0.3-6.3 0.6-12.6 0.3-6.3 0.3-11.4 0-34.8-0.9-45.9-0.9-7.2 8.7-7.2 2.4 0 7.8 0.6 4.8 0.6 7.2 0.6l18.9-0.6q20.4-1.2 31.5-1.2 12.9 0 36.3 0.6 7.5 0.3 15.9 0.3 3.6 0 4.5 1.8 0.9 1.8 0.6 3.9 0 1.8 0 2.4zm163.2 187.2q8.1 8.1 8.1 11.1 0 0.6-1.5 2.1-2.7 1.8-13.5 1.8-7.8 0-9.9-0.9-2.1-1.2-3.3-3.6-0.9-2.4-1.5-3.6-0.9-1.8-7.5-10.2-6.3-8.7-9.6-13.2-15.9-20.4-27.6-36.9-7.2-10.2-26.7-35.1l-4.8-6-20.7-25.8-1.2 12q-1.2 9-0.6 21.6 0.9 8.4 1.2 43.5 0.3 35.1 0.3 51.3 0 4.8-3.6 6.3-3.6 1.2-8.4 1.2-2.1 0-2.7-1.8-0.6-1.8-0.9-3.9 0-2.1 0-2.7-0.6-4.8-0.6-14.1 0-6 0.3-9 0.3-16.2 0.9-56.4 0.6-40.5 0.6-72.6 0-34.5-0.9-40.2-0.3-2.4-0.3-6.3 0-4.5 1.2-5.7 1.5-1.2 4.2-1.2 6 0 11.7 0.3l32.7 0.6q18 0 37.5 6.3 19.5 6.3 19.5 23.4 0 16.2-12 25.2-12 9-27 12.3-14.7 3.3-25.8 3.3-3.9 0-4.2-0.3 1.8 1.8 23.7 31.8 66 88.5 72.9 95.4zm-119.4-139.2q9.9 0 15-0.3 17.4-0.6 27-2.4 13.8-2.4 20.7-6.6 7.2-4.2 7.2-13.2 0-6-6.3-10.2-6.3-4.5-15.3-6.6-8.7-2.4-15.3-2.4-7.5-0.3-21-0.3h-10.2zm215-62.7q30 0 45 17.4 15 17.1 19.3 40.8 4.1 23.4 4.1 53.1 0 24-7.1 49.5-7.3 25.2-22.3 42.6-15 17.4-36.8 17.4-42.9 0-57-36-14.2-36.3-14.2-77.7 0-39.9 10.9-63.9 11-24 26.6-33.6 15.9-9.6 31.5-9.6zm-0.2 144.6q8.1 0 12-9 3.9-9 3.9-21.6 0-12-3.9-21-3.6-9-9.9-9-7.5 0-11.5 10.5-3.5 10.2-3.5 22.2 0 12.3 2.4 20.1 2.4 7.8 10.5 7.8zm161.9-145.5q28.5 0 46.8 11.4 18.6 11.1 28.8 21.3 1.2 1.2 1.2 2.7 0 0.9-0.9 2.4-0.6 1.2-0.9 1.8-1.5 2.1-5.1 7.5-3.3 5.1-5.4 7.5-0.9 1.2-2.1 2.7-0.9 1.2-1.8 1.8-0.6 0.6-2.1 0.6-0.6 0-3-1.8-2.1-2.1-4.2-3.6-12-10.5-23.4-18-11.4-7.5-21.9-7.5-8.4 0-13.8 3.9-5.4 3.6-5.4 16.8 0 12.9 9.6 20.1 9.6 7.2 25.5 13.8 1.5 0.6 17.4 7.5 16.2 6.9 28.5 26.4 12.6 19.5 12.6 46.5 0 28.8-21.6 43.2-21.6 14.4-59.7 14.4-43.1 0-54.9-16.5-11.7-16.8-12.3-17.4-1.2-1.5-1.2-3 0-0.9 2.4-3.9 3.9-5.4 11.4-12.9 1.2-1.2 2.5-1.2 1.5 0 3.2 2.4 1.8 2.1 3 3.3 17.8 17.7 40.3 17.7 11.3 0 19.7-4.2 8.4-4.5 8.4-16.5 0-20.7-32.6-44.1-5.5-3.6-10.3-6-12.6-6.9-21.6-13.5-9-6.6-15.9-17.4-6.9-10.8-6.9-25.2 0-18 11.2-32.4 11.3-14.4 27-22.5 15.8-8.1 27.5-8.1z"/></svg>